<svg width="9" height="12" viewBox="0 0 9 12" fill="none" xmlns="http://www.w3.org/2000/svg">
<g opacity="0.65">
<path fill-rule="evenodd" clip-rule="evenodd" d="M3.99748 1.23651C4.25669 1.00971 4.64372 1.00971 4.90293 1.23651L7.65293 3.64276C7.93871 3.89279 7.96765 4.32713 7.7176 4.61287C7.46757 4.89863 7.03324 4.92758 6.74748 4.67755L4.4502 2.66744L2.15293 4.67755C1.86718 4.92758 1.43284 4.89863 1.18281 4.61287C0.932778 4.32713 0.961733 3.89279 1.24748 3.64276L3.99748 1.23651ZM1.18187 7.84364C1.4313 7.55736 1.86557 7.5275 2.15185 7.77696L4.4502 9.77958L6.74856 7.77696C7.03484 7.5275 7.46911 7.55736 7.71854 7.84364C7.968 8.12992 7.93809 8.56414 7.65185 8.81364L4.90185 11.2097C4.64299 11.4353 4.25742 11.4353 3.99856 11.2097L1.24856 8.81364C0.962293 8.56414 0.932431 8.12992 1.18187 7.84364Z" fill="#353740"/>
</g>
</svg>
