<svg width="9" height="12" viewBox="0 0 9 12" fill="none" xmlns="http://www.w3.org/2000/svg">
<g opacity="0.999992">
<path fill-rule="evenodd" clip-rule="evenodd" d="M3.72698 1.23651C3.98618 1.00971 4.37321 1.00971 4.63242 1.23651L7.38242 3.64276C7.6682 3.89279 7.69714 4.32713 7.44709 4.61287C7.19706 4.89863 6.76273 4.92758 6.47698 4.67755L4.17969 2.66744L1.88242 4.67755C1.59667 4.92758 1.16233 4.89863 0.912301 4.61287C0.66227 4.32713 0.691226 3.89279 0.976976 3.64276L3.72698 1.23651ZM0.911357 7.84364C1.16079 7.55736 1.59507 7.5275 1.88134 7.77696L4.17969 9.77958L6.47805 7.77696C6.76433 7.5275 7.1986 7.55736 7.44803 7.84364C7.69749 8.12992 7.66758 8.56414 7.38134 8.81364L4.63134 11.2097C4.37248 11.4353 3.98691 11.4353 3.72806 11.2097L0.978057 8.81364C0.691785 8.56414 0.661923 8.12992 0.911357 7.84364Z" fill="#353740"/>
</g>
</svg>
