<svg width="21" height="21" viewBox="0 0 21 21" fill="none" xmlns="http://www.w3.org/2000/svg">
<path fill-rule="evenodd" clip-rule="evenodd" d="M13.0531 4.38956C12.611 4.38956 12.1871 4.56516 11.8745 4.87772C11.562 5.19028 11.3864 5.6142 11.3864 6.05623C11.3864 6.49826 11.562 6.92218 11.8745 7.23474C12.1871 7.5473 12.611 7.7229 13.0531 7.7229C13.4951 7.7229 13.919 7.5473 14.2316 7.23474C14.5441 6.92218 14.7197 6.49826 14.7197 6.05623C14.7197 5.6142 14.5441 5.19028 14.2316 4.87772C13.919 4.56516 13.4951 4.38956 13.0531 4.38956ZM9.82473 5.2229C10.0101 4.5077 10.4277 3.8743 11.012 3.42212C11.5963 2.96995 12.3142 2.72461 13.0531 2.72461C13.7919 2.72461 14.5098 2.96995 15.0941 3.42212C15.6784 3.8743 16.096 4.5077 16.2814 5.2229H17.6364C17.8574 5.2229 18.0694 5.31069 18.2256 5.46697C18.3819 5.62325 18.4697 5.83522 18.4697 6.05623C18.4697 6.27724 18.3819 6.4892 18.2256 6.64548C18.0694 6.80176 17.8574 6.88956 17.6364 6.88956H16.2814C16.096 7.60476 15.6784 8.23816 15.0941 8.69033C14.5098 9.14251 13.7919 9.38785 13.0531 9.38785C12.3142 9.38785 11.5963 9.14251 11.012 8.69033C10.4277 8.23816 10.0101 7.60476 9.82473 6.88956H4.30306C4.08205 6.88956 3.87008 6.80176 3.7138 6.64548C3.55752 6.4892 3.46973 6.27724 3.46973 6.05623C3.46973 5.83522 3.55752 5.62325 3.7138 5.46697C3.87008 5.31069 4.08205 5.2229 4.30306 5.2229H9.82473ZM8.88639 12.7229C8.44437 12.7229 8.02044 12.8985 7.70788 13.2111C7.39532 13.5236 7.21973 13.9475 7.21973 14.3896C7.21973 14.8316 7.39532 15.2555 7.70788 15.5681C8.02044 15.8806 8.44437 16.0562 8.88639 16.0562C9.32842 16.0562 9.75234 15.8806 10.0649 15.5681C10.3775 15.2555 10.5531 14.8316 10.5531 14.3896C10.5531 13.9475 10.3775 13.5236 10.0649 13.2111C9.75234 12.8985 9.32842 12.7229 8.88639 12.7229ZM5.65806 13.5562C5.84342 12.841 6.26104 12.2076 6.84534 11.7555C7.42965 11.3033 8.14756 11.0579 8.88639 11.0579C9.62522 11.0579 10.3431 11.3033 10.9274 11.7555C11.5118 12.2076 11.9294 12.841 12.1147 13.5562H17.6364C17.8574 13.5562 18.0694 13.644 18.2256 13.8003C18.3819 13.9566 18.4697 14.1685 18.4697 14.3896C18.4697 14.6106 18.3819 14.8225 18.2256 14.9788C18.0694 15.1351 17.8574 15.2229 17.6364 15.2229H12.1147C11.9294 15.9381 11.5118 16.5715 10.9274 17.0237C10.3431 17.4758 9.62522 17.7212 8.88639 17.7212C8.14756 17.7212 7.42965 17.4758 6.84534 17.0237C6.26104 16.5715 5.84342 15.9381 5.65806 15.2229H4.30306C4.08205 15.2229 3.87008 15.1351 3.7138 14.9788C3.55752 14.8225 3.46973 14.6106 3.46973 14.3896C3.46973 14.1685 3.55752 13.9566 3.7138 13.8003C3.87008 13.644 4.08205 13.5562 4.30306 13.5562H5.65806Z" fill="#202123"/>
</svg>
