<svg width="9" height="12" viewBox="0 0 9 12" fill="none" xmlns="http://www.w3.org/2000/svg">
<g opacity="0.65">
<path fill-rule="evenodd" clip-rule="evenodd" d="M4.51701 1.23651C4.77622 1.00971 5.16325 1.00971 5.42246 1.23651L8.17246 3.64276C8.45824 3.89279 8.48718 4.32713 8.23713 4.61287C7.9871 4.89863 7.55277 4.92758 7.26701 4.67755L4.96973 2.66744L2.67246 4.67755C2.38671 4.92758 1.95237 4.89863 1.70234 4.61287C1.45231 4.32713 1.48126 3.89279 1.76701 3.64276L4.51701 1.23651ZM1.7014 7.84364C1.95083 7.55736 2.3851 7.5275 2.67138 7.77696L4.96973 9.77958L7.26809 7.77696C7.55437 7.5275 7.98864 7.55736 8.23807 7.84364C8.48753 8.12992 8.45762 8.56414 8.17138 8.81364L5.42138 11.2097C5.16252 11.4353 4.77695 11.4353 4.51809 11.2097L1.7681 8.81364C1.48182 8.56414 1.45196 8.12992 1.7014 7.84364Z" fill="#353740"/>
</g>
</svg>
