<svg width="21" height="21" viewBox="0 0 21 21" fill="none" xmlns="http://www.w3.org/2000/svg">
<path fill-rule="evenodd" clip-rule="evenodd" d="M6.93714 2.72266H15.0021C15.4413 2.72266 15.8205 2.72266 16.1321 2.74766C16.4613 2.77516 16.7896 2.83432 17.1046 2.99516C17.575 3.23484 17.9575 3.61727 18.1971 4.08766C18.358 4.40266 18.4171 4.73099 18.4438 5.06016C18.4696 5.37266 18.4696 5.75182 18.4696 6.19016V14.2552C18.4696 14.6943 18.4696 15.0735 18.4446 15.3852C18.4171 15.7143 18.358 16.0427 18.1971 16.3577C17.9575 16.828 17.575 17.2105 17.1046 17.4502C16.7896 17.611 16.4613 17.6702 16.1321 17.6968C15.8196 17.7227 15.4405 17.7227 15.0021 17.7227H6.93631C6.49714 17.7227 6.11881 17.7227 5.80631 17.6977C5.47714 17.6702 5.14881 17.611 4.83381 17.4502C4.36342 17.2105 3.98099 16.828 3.74131 16.3577C3.58047 16.0427 3.52131 15.7143 3.49464 15.3852C3.47201 15.0087 3.46367 14.6314 3.46964 14.2543V6.19099C3.46964 5.75182 3.46964 5.37349 3.49464 5.06099C3.52214 4.73182 3.58131 4.40349 3.74214 4.08849C3.98182 3.61811 4.36426 3.23567 4.83464 2.99599C5.14964 2.83516 5.47797 2.77599 5.80714 2.74932C6.11964 2.72266 6.49881 2.72266 6.93714 2.72266ZM5.94297 4.40932C5.71631 4.42766 5.63214 4.45932 5.59131 4.48016C5.43451 4.56005 5.30703 4.68753 5.22714 4.84432C5.20631 4.88599 5.17464 4.96932 5.15631 5.19599C5.13631 5.43099 5.13631 5.74182 5.13631 6.22266V11.5443L5.86881 10.8118C6.33763 10.3431 6.9734 10.0799 7.63631 10.0799C8.29922 10.0799 8.93499 10.3431 9.40381 10.8118L14.648 16.056H14.9696C15.4505 16.056 15.7605 16.056 15.9963 16.036C16.223 16.0177 16.3063 15.986 16.348 15.9652C16.5048 15.8853 16.6322 15.7578 16.7121 15.601C16.733 15.5593 16.7646 15.476 16.783 15.2493C16.803 15.0143 16.803 14.7035 16.803 14.2227V6.22266C16.803 5.74182 16.803 5.43182 16.783 5.19599C16.7646 4.96932 16.733 4.88516 16.7121 4.84432C16.6322 4.68753 16.5048 4.56005 16.348 4.48016C16.3063 4.45932 16.223 4.42766 15.9963 4.40932C15.7613 4.38932 15.4505 4.38932 14.9696 4.38932H6.96964C6.48881 4.38932 6.17881 4.38932 5.94297 4.40932ZM12.2913 16.056L8.22547 11.9902C8.0692 11.8339 7.85728 11.7462 7.63631 11.7462C7.41534 11.7462 7.20341 11.8339 7.04714 11.9902L5.13631 13.901V14.2227C5.13631 14.7035 5.13631 15.0135 5.15631 15.2493C5.17464 15.476 5.20631 15.5593 5.22714 15.601C5.30703 15.7578 5.43451 15.8853 5.59131 15.9652C5.63297 15.986 5.71631 16.0177 5.94297 16.036C6.17797 16.056 6.48881 16.056 6.96964 16.056H12.2913ZM13.053 7.30599C12.832 7.30599 12.62 7.39379 12.4637 7.55007C12.3074 7.70635 12.2196 7.91831 12.2196 8.13932C12.2196 8.36034 12.3074 8.5723 12.4637 8.72858C12.62 8.88486 12.832 8.97266 13.053 8.97266C13.274 8.97266 13.4859 8.88486 13.6422 8.72858C13.7985 8.5723 13.8863 8.36034 13.8863 8.13932C13.8863 7.91831 13.7985 7.70635 13.6422 7.55007C13.4859 7.39379 13.274 7.30599 13.053 7.30599ZM10.553 8.13932C10.553 7.47628 10.8164 6.8404 11.2852 6.37156C11.754 5.90272 12.3899 5.63932 13.053 5.63932C13.716 5.63932 14.3519 5.90272 14.8207 6.37156C15.2896 6.8404 15.553 7.47628 15.553 8.13932C15.553 8.80236 15.2896 9.43825 14.8207 9.90709C14.3519 10.3759 13.716 10.6393 13.053 10.6393C12.3899 10.6393 11.754 10.3759 11.2852 9.90709C10.8164 9.43825 10.553 8.80236 10.553 8.13932Z" fill="#202123"/>
</svg>
