<svg width="19" height="19" viewBox="0 0 19 19" fill="none" xmlns="http://www.w3.org/2000/svg">
<path fill-rule="evenodd" clip-rule="evenodd" d="M2.82465 6.57791C2.8028 6.68866 2.80624 6.80291 2.83469 6.91214C2.86315 7.02138 2.9159 7.12278 2.989 7.20879C3.06211 7.2948 3.15368 7.3632 3.25691 7.40889C3.36013 7.45458 3.47233 7.47638 3.58515 7.47266C3.63315 7.47416 3.68265 7.47041 3.73215 7.46216L5.98215 7.08716C6.17346 7.04938 6.34253 6.93859 6.45352 6.77825C6.56451 6.61792 6.60869 6.42067 6.57669 6.22831C6.5447 6.03596 6.43904 5.86362 6.28213 5.74785C6.12522 5.63208 5.92938 5.58198 5.73615 5.60816L5.15265 5.70566C6.07191 4.68617 7.31297 4.01272 8.66876 3.79768C10.0245 3.58263 11.4131 3.839 12.6027 4.524C13.7923 5.209 14.7111 6.28121 15.2057 7.56174C15.7003 8.84227 15.7408 10.2537 15.3206 11.5605C14.9003 12.8673 14.0446 13.9905 12.8963 14.7427C11.748 15.4949 10.3765 15.8306 9.01057 15.6937C7.64467 15.5569 6.367 14.9558 5.39071 13.9908C4.41443 13.0257 3.79857 11.7551 3.6459 10.3909C3.63512 10.293 3.60515 10.1982 3.55772 10.1119C3.5103 10.0256 3.44633 9.94942 3.36948 9.88782C3.29263 9.82622 3.20439 9.78036 3.10982 9.75286C3.01524 9.72535 2.91618 9.71675 2.81828 9.72754C2.72037 9.73832 2.62556 9.76828 2.53924 9.81571C2.45292 9.86314 2.37678 9.92711 2.31518 10.004C2.25358 10.0808 2.20772 10.169 2.18022 10.2636C2.15272 10.3582 2.14412 10.4573 2.1549 10.5552C2.56965 14.3052 5.74815 17.2227 9.60915 17.2227C13.7514 17.2227 17.1092 13.8649 17.1092 9.72266C17.1092 5.58041 13.7514 2.22266 9.60915 2.22266C8.55741 2.22153 7.51726 2.44217 6.55655 2.87019C5.59584 3.2982 4.73618 3.92397 4.03365 4.70666L3.97365 4.34966C3.93587 4.15836 3.82507 3.98928 3.66474 3.87829C3.50441 3.76731 3.30716 3.72312 3.1148 3.75512C2.92245 3.78711 2.75011 3.89277 2.63434 4.04968C2.51857 4.20659 2.46847 4.40243 2.49465 4.59566L2.82465 6.57791ZM9.60915 5.97266C9.80806 5.97266 9.99883 6.05168 10.1395 6.19233C10.2801 6.33298 10.3592 6.52375 10.3592 6.72266V9.41216L12.0144 11.0674C12.151 11.2089 12.2266 11.3983 12.2249 11.595C12.2232 11.7916 12.1443 11.9797 12.0053 12.1188C11.8662 12.2578 11.6781 12.3367 11.4815 12.3384C11.2848 12.3401 11.0954 12.2645 10.9539 12.1279L9.0789 10.2529C8.93824 10.1123 8.85919 9.92156 8.85915 9.72266V6.72266C8.85915 6.52375 8.93817 6.33298 9.07882 6.19233C9.21947 6.05168 9.41024 5.97266 9.60915 5.97266Z" fill="#353740"/>
</svg>
