<svg width="21" height="21" viewBox="0 0 21 21" fill="none" xmlns="http://www.w3.org/2000/svg">
<path fill-rule="evenodd" clip-rule="evenodd" d="M5.96973 4.38932C5.74871 4.38932 5.53675 4.47712 5.38047 4.6334C5.22419 4.78968 5.13639 5.00164 5.13639 5.22266V15.2227C5.13639 15.4437 5.22419 15.6556 5.38047 15.8119C5.53675 15.9682 5.74871 16.056 5.96973 16.056H7.63639V4.38932H5.96973ZM9.30306 4.38932V16.056H15.9697C16.1907 16.056 16.4027 15.9682 16.559 15.8119C16.7153 15.6556 16.8031 15.4437 16.8031 15.2227V5.22266C16.8031 5.00164 16.7153 4.78968 16.559 4.6334C16.4027 4.47712 16.1907 4.38932 15.9697 4.38932H9.30306ZM3.46973 5.22266C3.46973 4.55961 3.73312 3.92373 4.20196 3.45489C4.6708 2.98605 5.30669 2.72266 5.96973 2.72266H15.9697C16.6328 2.72266 17.2687 2.98605 17.7375 3.45489C18.2063 3.92373 18.4697 4.55961 18.4697 5.22266V15.2227C18.4697 15.8857 18.2063 16.5216 17.7375 16.9904C17.2687 17.4593 16.6328 17.7227 15.9697 17.7227H5.96973C5.30669 17.7227 4.6708 17.4593 4.20196 16.9904C3.73312 16.5216 3.46973 15.8857 3.46973 15.2227V5.22266Z" fill="#202123"/>
</svg>
