<svg width="21" height="21" viewBox="0 0 21 21" fill="none" xmlns="http://www.w3.org/2000/svg">
<path fill-rule="evenodd" clip-rule="evenodd" d="M10.9701 3.55534C9.20194 3.55534 7.50625 4.25772 6.25601 5.50796C5.00576 6.7582 4.30339 8.4539 4.30339 10.222C4.30339 11.9901 5.00576 13.6858 6.25601 14.9361C7.50625 16.1863 9.20194 16.8887 10.9701 16.8887C12.7382 16.8887 14.4339 16.1863 15.6841 14.9361C16.9343 13.6858 17.6367 11.9901 17.6367 10.222C17.6367 8.4539 16.9343 6.7582 15.6841 5.50796C14.4339 4.25772 12.7382 3.55534 10.9701 3.55534ZM2.63672 10.222C2.63672 5.61951 6.36755 1.88867 10.9701 1.88867C15.5726 1.88867 19.3034 5.61951 19.3034 10.222C19.3034 14.8245 15.5726 18.5553 10.9701 18.5553C6.36755 18.5553 2.63672 14.8245 2.63672 10.222Z" fill="#353740"/>
<path fill-rule="evenodd" clip-rule="evenodd" d="M10.9696 7.72331C10.8197 7.72321 10.6725 7.76357 10.5436 7.84013C10.4147 7.91669 10.3088 8.02661 10.2371 8.15831C10.1284 8.34712 9.95004 8.48584 9.74027 8.54474C9.5305 8.60365 9.30601 8.57806 9.11488 8.47345C8.92375 8.36884 8.7812 8.19354 8.71775 7.9851C8.65431 7.77666 8.67502 7.55166 8.77546 7.35831C8.99063 6.96433 9.30792 6.63556 9.69401 6.40652C10.0801 6.17748 10.5207 6.05663 10.9696 6.05664C12.2321 6.05664 13.1088 6.89497 13.358 7.88081C13.6096 8.87164 13.228 10.0258 12.088 10.5958C12.0023 10.6386 11.9303 10.7043 11.88 10.7857C11.8296 10.8671 11.803 10.9609 11.803 11.0566C11.803 11.2777 11.7152 11.4896 11.5589 11.6459C11.4026 11.8022 11.1906 11.89 10.9696 11.89C10.7486 11.89 10.5367 11.8022 10.3804 11.6459C10.2241 11.4896 10.1363 11.2777 10.1363 11.0566C10.1363 10.23 10.603 9.47497 11.3421 9.10497C11.7213 8.91581 11.8188 8.58997 11.7421 8.28997C11.6663 7.98497 11.4105 7.72331 10.9696 7.72331Z" fill="#353740"/>
<path d="M11.8861 13.5553C11.8861 13.7985 11.7895 14.0316 11.6176 14.2035C11.4457 14.3754 11.2125 14.472 10.9694 14.472C10.7263 14.472 10.4931 14.3754 10.3212 14.2035C10.1493 14.0316 10.0527 13.7985 10.0527 13.5553C10.0527 13.3122 10.1493 13.0791 10.3212 12.9072C10.4931 12.7352 10.7263 12.6387 10.9694 12.6387C11.2125 12.6387 11.4457 12.7352 11.6176 12.9072C11.7895 13.0791 11.8861 13.3122 11.8861 13.5553Z" fill="#353740"/>
</svg>
