<svg width="21" height="21" viewBox="0 0 21 21" fill="none" xmlns="http://www.w3.org/2000/svg">
<path d="M9.72005 11.8887C9.49904 11.8887 9.28708 11.9765 9.1308 12.1327C8.97452 12.289 8.88672 12.501 8.88672 12.722C8.88672 12.943 8.97452 13.155 9.1308 13.3113C9.28708 13.4675 9.49904 13.5553 9.72005 13.5553H12.2201C12.4411 13.5553 12.653 13.4675 12.8093 13.3113C12.9656 13.155 13.0534 12.943 13.0534 12.722C13.0534 12.501 12.9656 12.289 12.8093 12.1327C12.653 11.9765 12.4411 11.8887 12.2201 11.8887H9.72005Z" fill="#202123"/>
<path d="M9.72225 2.89196C8.88058 1.9028 7.28141 2.21363 6.87141 3.44613L6.26808 5.25863L4.50141 5.9878C3.30141 6.4828 3.10225 8.09863 4.14725 8.86946L4.47391 9.1103C4.11871 9.26428 3.8282 9.53712 3.65225 9.88196C3.55417 10.0826 3.49695 10.3007 3.48391 10.5236C3.46975 10.697 3.46975 10.902 3.46975 11.112V14.1728C3.46975 14.8436 3.46975 15.3978 3.50641 15.8478C3.54475 16.317 3.62725 16.7478 3.83308 17.152C4.15265 17.7791 4.66257 18.2891 5.28975 18.6086C5.69475 18.8145 6.12475 18.897 6.59308 18.9353C7.04475 18.972 7.59808 18.972 8.26808 18.972H13.6706C14.3414 18.972 14.8956 18.972 15.3464 18.9353C15.8147 18.897 16.2456 18.8145 16.6497 18.6086C17.2769 18.2891 17.7868 17.7791 18.1064 17.152C18.3122 16.7478 18.3947 16.317 18.4331 15.8486C18.4697 15.3978 18.4697 14.8436 18.4697 14.1736V11.112C18.4697 10.902 18.4697 10.697 18.4556 10.5236C18.4431 10.3008 18.3864 10.0827 18.2889 9.88196C18.1289 9.56825 17.8736 9.31327 17.5597 9.15363C17.3591 9.0558 17.141 8.99886 16.9181 8.98613C16.8959 8.98419 16.8737 8.98252 16.8514 8.98113L17.8656 6.78363C18.0556 6.3728 18.2197 6.01946 18.2739 5.67196C18.3434 5.22921 18.2925 4.77594 18.1267 4.35958C17.9609 3.94322 17.6862 3.57909 17.3314 3.3053C17.0531 3.08946 16.6906 2.9453 16.2706 2.7778L16.1772 2.7403L16.0931 2.70696C15.7072 2.55196 15.3739 2.41863 15.0464 2.37863C14.6284 2.32792 14.2044 2.3836 13.8137 2.54049C13.423 2.69739 13.0782 2.95043 12.8114 3.27613C12.6031 3.53113 12.4539 3.85863 12.2822 4.23696L12.2281 4.35613L10.9606 4.34696L9.72225 2.89196ZM13.8956 4.71863C14.0189 4.45446 14.0606 4.38113 14.1006 4.33196C14.1895 4.2234 14.3044 4.13905 14.4347 4.08675C14.5649 4.03445 14.7063 4.01589 14.8456 4.0328C14.9264 4.0428 15.0389 4.0803 15.5581 4.2878C16.1256 4.5153 16.2447 4.57113 16.3131 4.62446C16.4314 4.71575 16.523 4.83717 16.5783 4.97601C16.6335 5.11485 16.6505 5.266 16.6272 5.41363C16.6139 5.49863 16.5664 5.62196 16.3106 6.17613L15.0197 8.97196H13.4197L13.2781 8.5278L14.2789 6.9003C14.4934 6.55282 14.5728 6.13872 14.5021 5.73657C14.4315 5.33441 14.2156 4.97219 13.8956 4.71863ZM11.6714 8.97196H6.99475C6.90264 8.85512 6.79529 8.75114 6.67558 8.6628L5.13641 7.52863L6.90308 6.79946C7.12445 6.70832 7.3236 6.57057 7.48695 6.39556C7.65031 6.22056 7.77405 6.01241 7.84975 5.7853L8.45308 3.97196L9.69141 5.42696C9.84657 5.60934 10.0392 5.75615 10.2562 5.85739C10.4732 5.95862 10.7095 6.01191 10.9489 6.01363L12.8597 6.02696L11.8581 7.65446C11.7381 7.84947 11.6597 8.0671 11.6276 8.29377C11.5954 8.52045 11.6104 8.75131 11.6714 8.97196ZM15.5689 10.6386H16.3031C16.5506 10.6386 16.6856 10.6386 16.7831 10.647L16.7939 10.6486V10.6595C16.8022 10.7561 16.8031 10.8911 16.8031 11.1386V14.1386C16.8031 14.8528 16.8031 15.3378 16.7722 15.7128C16.7422 16.0778 16.6881 16.2653 16.6222 16.3953C16.4622 16.709 16.207 16.964 15.8931 17.1236C15.7631 17.1903 15.5764 17.2445 15.2106 17.2736C14.8356 17.3045 14.3506 17.3053 13.6364 17.3053H8.30308C7.58975 17.3053 7.10391 17.3053 6.72891 17.2736C6.36391 17.2445 6.17725 17.1903 6.04641 17.1236C5.73282 16.9638 5.47787 16.7089 5.31808 16.3953C5.25141 16.2653 5.19808 16.0786 5.16808 15.7128C5.13641 15.3378 5.13641 14.8528 5.13641 14.1386V11.1386C5.13641 10.892 5.13641 10.7561 5.14475 10.6595L5.14641 10.6478H5.15725C5.25391 10.6395 5.38975 10.6386 5.63641 10.6386H15.5364C15.5475 10.6389 15.5586 10.6389 15.5697 10.6386H15.5689Z" fill="#202123"/>
</svg>
