<svg width="21" height="21" viewBox="0 0 21 21" fill="none" xmlns="http://www.w3.org/2000/svg">
<path fill-rule="evenodd" clip-rule="evenodd" d="M10.6097 3.13932C10.4644 3.13926 10.3215 3.17721 10.1954 3.24943C10.0692 3.32165 9.96413 3.42561 9.89057 3.55099L9.21474 4.70182C8.9957 5.07473 8.68371 5.38446 8.30921 5.60077C7.93472 5.81708 7.51053 5.93258 7.07807 5.93599L5.74807 5.94682C5.60285 5.94808 5.46047 5.98726 5.33505 6.06049C5.20964 6.13372 5.10554 6.23846 5.03307 6.36432L4.66724 6.99849C4.59482 7.12409 4.55642 7.2664 4.55584 7.41138C4.55525 7.55636 4.5925 7.69898 4.66391 7.82516L5.32391 8.99182C5.53628 9.36728 5.64789 9.7913 5.64789 10.2227C5.64789 10.654 5.53628 11.078 5.32391 11.4535L4.66391 12.6202C4.5925 12.7463 4.55525 12.889 4.55584 13.0339C4.55642 13.1789 4.59482 13.3212 4.66724 13.4468L5.03307 14.0802C5.10543 14.2062 5.20949 14.3111 5.33491 14.3845C5.46033 14.4578 5.60276 14.4972 5.74807 14.4985L7.07807 14.5093C7.51047 14.5126 7.93464 14.6279 8.30914 14.8441C8.68364 15.0602 8.99566 15.3698 9.21474 15.7427L9.89057 16.8943C9.96413 17.0197 10.0692 17.1237 10.1954 17.1959C10.3215 17.2681 10.4644 17.3061 10.6097 17.306H11.3347C11.48 17.3059 11.6226 17.2679 11.7486 17.1957C11.8746 17.1235 11.9796 17.0196 12.0531 16.8943L12.7297 15.7435C12.9487 15.3707 13.2606 15.061 13.6349 14.8447C14.0092 14.6284 14.4333 14.5129 14.8656 14.5093L16.1956 14.4985C16.3411 14.4975 16.4838 14.4585 16.6095 14.3852C16.7353 14.312 16.8396 14.2071 16.9122 14.081L17.2772 13.4468C17.3497 13.3212 17.3881 13.1789 17.3886 13.0339C17.3892 12.889 17.352 12.7463 17.2806 12.6202L16.6197 11.4535C16.4074 11.078 16.2958 10.654 16.2958 10.2227C16.2958 9.7913 16.4074 9.36728 16.6197 8.99182L17.2806 7.82516C17.352 7.69898 17.3892 7.55636 17.3886 7.41138C17.3881 7.2664 17.3497 7.12409 17.2772 6.99849L16.9114 6.36516C16.839 6.23914 16.735 6.13424 16.6096 6.06085C16.4841 5.98747 16.3417 5.94816 16.1964 5.94682L14.8656 5.93599C14.4333 5.93261 14.0093 5.8172 13.635 5.60104C13.2606 5.38487 12.9487 5.07534 12.7297 4.70266L12.0531 3.55016C11.9796 3.4249 11.8746 3.32101 11.7486 3.2488C11.6226 3.17659 11.48 3.13857 11.3347 3.13849L10.6097 3.13932ZM8.45307 2.70682C8.67383 2.33101 8.98898 2.01942 9.36728 1.80293C9.74557 1.58645 10.1739 1.4726 10.6097 1.47266H11.3347C12.2214 1.47266 13.0422 1.94266 13.4914 2.70682L14.1672 3.85849C14.2402 3.9829 14.3442 4.08624 14.4691 4.1584C14.594 4.23056 14.7355 4.26907 14.8797 4.27016L16.2097 4.28099C16.6455 4.28452 17.0727 4.40188 17.4491 4.62143C17.8255 4.84098 18.138 5.15511 18.3556 5.53266L18.7222 6.16599C18.9392 6.54275 19.0542 6.96959 19.0558 7.40436C19.0574 7.83913 18.9456 8.2668 18.7314 8.64516L18.0714 9.81182C18.0006 9.93701 17.9633 10.0784 17.9633 10.2222C17.9633 10.3661 18.0006 10.5075 18.0714 10.6327L18.7314 11.8002C18.9453 12.1785 19.0569 12.606 19.0551 13.0406C19.0534 13.4753 18.9384 13.9019 18.7214 14.2785L18.3556 14.9127C18.138 15.2903 17.8256 15.6045 17.4492 15.8242C17.0728 16.0439 16.6455 16.1615 16.2097 16.1652L14.8789 16.1752C14.7348 16.1764 14.5935 16.215 14.4688 16.2871C14.344 16.3593 14.2401 16.4625 14.1672 16.5868L13.4914 17.7385C13.2706 18.1143 12.9555 18.4259 12.5772 18.6424C12.1989 18.8589 11.7706 18.9727 11.3347 18.9727H10.6097C10.1739 18.9727 9.74557 18.8589 9.36728 18.6424C8.98898 18.4259 8.67383 18.1143 8.45307 17.7385L7.77724 16.5868C7.70426 16.4624 7.60024 16.3591 7.47534 16.2869C7.35045 16.2148 7.20897 16.1762 7.06474 16.1752L5.73474 16.1652C5.29879 16.1616 4.87135 16.0442 4.4948 15.8245C4.11825 15.6047 3.80567 15.2904 3.58807 14.9127L3.22307 14.2793C3.00585 13.9027 2.8906 13.4759 2.8887 13.0412C2.8868 12.6064 2.99831 12.1787 3.21224 11.8002L3.87307 10.6335C3.94391 10.5083 3.98114 10.3669 3.98114 10.2231C3.98114 10.0792 3.94391 9.93784 3.87307 9.81266L3.21224 8.64599C2.99831 8.26749 2.8868 7.83974 2.8887 7.40497C2.8906 6.9702 3.00585 6.54344 3.22307 6.16682L3.58807 5.53266C3.80578 5.15504 4.1184 4.84089 4.49494 4.62133C4.87149 4.40178 5.29888 4.28446 5.73474 4.28099L7.06474 4.27016C7.20897 4.26907 7.35045 4.23056 7.47534 4.1584C7.60024 4.08624 7.70426 3.9829 7.77724 3.85849L8.45307 2.70682Z" fill="#202123"/>
<path fill-rule="evenodd" clip-rule="evenodd" d="M10.9722 8.97289C10.6407 8.97289 10.3227 9.10459 10.0883 9.33901C9.85388 9.57343 9.72219 9.89137 9.72219 10.2229C9.72219 10.5544 9.85388 10.8724 10.0883 11.1068C10.3227 11.3412 10.6407 11.4729 10.9722 11.4729C11.3037 11.4729 11.6217 11.3412 11.8561 11.1068C12.0905 10.8724 12.2222 10.5544 12.2222 10.2229C12.2222 9.89137 12.0905 9.57343 11.8561 9.33901C11.6217 9.10459 11.3037 8.97289 10.9722 8.97289ZM8.05469 10.2229C8.05474 9.83987 8.13024 9.46061 8.27687 9.10676C8.42349 8.75292 8.63838 8.43142 8.90925 8.16062C9.18013 7.88982 9.50169 7.67503 9.85558 7.5285C10.2095 7.38197 10.5887 7.30659 10.9718 7.30664C11.3548 7.3067 11.7341 7.38219 12.0879 7.52882C12.4417 7.67544 12.7632 7.89033 13.034 8.16121C13.3048 8.43208 13.5196 8.75364 13.6662 9.10753C13.8127 9.46142 13.8881 9.8407 13.888 10.2237C13.8879 10.9973 13.5805 11.7391 13.0335 12.286C12.4864 12.8329 11.7445 13.1401 10.9709 13.14C10.1974 13.1399 9.45557 12.8325 8.90866 12.2854C8.36176 11.7383 8.05458 10.9964 8.05469 10.2229Z" fill="#202123"/>
</svg>
