<svg width="21" height="21" viewBox="0 0 21 21" fill="none" xmlns="http://www.w3.org/2000/svg">
<path fill-rule="evenodd" clip-rule="evenodd" d="M8.47005 6.05534C8.47005 4.95027 8.90904 3.89046 9.69044 3.10906C10.4718 2.32766 11.5316 1.88867 12.6367 1.88867C13.7418 1.88867 14.8016 2.32766 15.583 3.10906C16.3644 3.89046 16.8034 4.95027 16.8034 6.05534V12.722C16.8034 13.488 16.6525 14.2466 16.3593 14.9543C16.0662 15.6621 15.6365 16.3051 15.0948 16.8468C14.5532 17.3885 13.9101 17.8182 13.2024 18.1113C12.4946 18.4045 11.7361 18.5553 10.9701 18.5553C10.204 18.5553 9.44546 18.4045 8.73773 18.1113C8.03 17.8182 7.38694 17.3885 6.84526 16.8468C6.30359 16.3051 5.87391 15.6621 5.58075 14.9543C5.2876 14.2466 5.13672 13.488 5.13672 12.722V7.72201C5.13672 7.50099 5.22452 7.28903 5.3808 7.13275C5.53708 6.97647 5.74904 6.88867 5.97005 6.88867C6.19107 6.88867 6.40303 6.97647 6.55931 7.13275C6.71559 7.28903 6.80339 7.50099 6.80339 7.72201V12.722C6.80339 13.8271 7.24237 14.8869 8.02377 15.6683C8.80518 16.4497 9.86498 16.8887 10.9701 16.8887C12.0751 16.8887 13.1349 16.4497 13.9163 15.6683C14.6977 14.8869 15.1367 13.8271 15.1367 12.722V6.05534C15.1367 5.72703 15.0721 5.40194 14.9464 5.09863C14.8208 4.79532 14.6366 4.51972 14.4045 4.28757C14.1723 4.05543 13.8967 3.87128 13.5934 3.74564C13.2901 3.62 12.965 3.55534 12.6367 3.55534C12.3084 3.55534 11.9833 3.62 11.68 3.74564C11.3767 3.87128 11.1011 4.05543 10.869 4.28757C10.6368 4.51972 10.4527 4.79532 10.327 5.09863C10.2014 5.40194 10.1367 5.72703 10.1367 6.05534V12.722C10.1367 12.943 10.2245 13.155 10.3808 13.3113C10.5371 13.4675 10.749 13.5553 10.9701 13.5553C11.1911 13.5553 11.403 13.4675 11.5593 13.3113C11.7156 13.155 11.8034 12.943 11.8034 12.722V7.72201C11.8034 7.50099 11.8912 7.28903 12.0475 7.13275C12.2037 6.97647 12.4157 6.88867 12.6367 6.88867C12.8577 6.88867 13.0697 6.97647 13.226 7.13275C13.3823 7.28903 13.4701 7.50099 13.4701 7.72201V12.722C13.4701 13.385 13.2067 14.0209 12.7378 14.4898C12.269 14.9586 11.6331 15.222 10.9701 15.222C10.307 15.222 9.67113 14.9586 9.20228 14.4898C8.73344 14.0209 8.47005 13.385 8.47005 12.722V6.05534Z" fill="#6E6E80"/>
</svg>
