<svg width="21" height="21" viewBox="0 0 21 21" fill="none" xmlns="http://www.w3.org/2000/svg">
<path fill-rule="evenodd" clip-rule="evenodd" d="M10.3801 4.63266C10.5364 4.47643 10.7483 4.38867 10.9693 4.38867C11.1902 4.38867 11.4021 4.47643 11.5584 4.63266L15.7251 8.79933C15.8769 8.9565 15.9609 9.167 15.959 9.38549C15.9571 9.60399 15.8694 9.813 15.7149 9.96751C15.5604 10.122 15.3514 10.2097 15.1329 10.2116C14.9144 10.2135 14.7039 10.1295 14.5468 9.97766L11.8026 7.23349V15.2218C11.8026 15.4428 11.7148 15.6548 11.5585 15.8111C11.4022 15.9674 11.1903 16.0552 10.9693 16.0552C10.7482 16.0552 10.5363 15.9674 10.38 15.8111C10.2237 15.6548 10.1359 15.4428 10.1359 15.2218V7.23349L7.39175 9.97766C7.23458 10.1295 7.02408 10.2135 6.80558 10.2116C6.58709 10.2097 6.37808 10.122 6.22357 9.96751C6.06906 9.813 5.98142 9.60399 5.97952 9.38549C5.97763 9.167 6.06162 8.9565 6.21342 8.79933L10.3801 4.63266Z" fill="#F7F7F8"/>
</svg>
