<svg width="19" height="19" viewBox="0 0 19 19" fill="none" xmlns="http://www.w3.org/2000/svg">
<path fill-rule="evenodd" clip-rule="evenodd" d="M3.185 6.57791C3.16315 6.68866 3.16659 6.80291 3.19505 6.91214C3.2235 7.02138 3.27625 7.12278 3.34935 7.20879C3.42246 7.2948 3.51404 7.3632 3.61726 7.40889C3.72048 7.45458 3.83268 7.47638 3.9455 7.47266C3.9935 7.47416 4.043 7.47041 4.0925 7.46216L6.3425 7.08716C6.53381 7.04938 6.70288 6.93859 6.81387 6.77825C6.92486 6.61792 6.96904 6.42067 6.93704 6.22831C6.90505 6.03596 6.7994 5.86362 6.64248 5.74785C6.48557 5.63208 6.28974 5.58198 6.0965 5.60816L5.513 5.70566C6.43226 4.68617 7.67332 4.01272 9.02911 3.79768C10.3849 3.58263 11.7734 3.839 12.963 4.524C14.1527 5.209 15.0714 6.28121 15.566 7.56174C16.0606 8.84227 16.1012 10.2537 15.6809 11.5605C15.2607 12.8673 14.405 13.9905 13.2567 14.7427C12.1083 15.4949 10.7368 15.8306 9.37092 15.6937C8.00502 15.5569 6.72735 14.9558 5.75106 13.9908C4.77478 13.0257 4.15893 11.7551 4.00625 10.3909C3.99547 10.293 3.96551 10.1982 3.91808 10.1119C3.87065 10.0256 3.80668 9.94942 3.72983 9.88782C3.65298 9.82622 3.56474 9.78036 3.47017 9.75286C3.37559 9.72535 3.27653 9.71675 3.17863 9.72754C3.08073 9.73832 2.98591 9.76828 2.89959 9.81571C2.81327 9.86314 2.73713 9.92711 2.67553 10.004C2.61393 10.0808 2.56807 10.169 2.54057 10.2636C2.51307 10.3582 2.50447 10.4573 2.51525 10.5552C2.93 14.3052 6.1085 17.2227 9.9695 17.2227C14.1118 17.2227 17.4695 13.8649 17.4695 9.72266C17.4695 5.58041 14.1118 2.22266 9.9695 2.22266C8.91776 2.22153 7.87761 2.44217 6.9169 2.87019C5.9562 3.2982 5.09653 3.92397 4.394 4.70666L4.334 4.34966C4.29623 4.15836 4.18543 3.98928 4.0251 3.87829C3.86477 3.76731 3.66751 3.72312 3.47515 3.75512C3.2828 3.78711 3.11046 3.89277 2.99469 4.04968C2.87892 4.20659 2.82882 4.40243 2.855 4.59566L3.185 6.57791ZM9.9695 5.97266C10.1684 5.97266 10.3592 6.05168 10.4998 6.19233C10.6405 6.33298 10.7195 6.52375 10.7195 6.72266V9.41216L12.3748 11.0674C12.5114 11.2089 12.587 11.3983 12.5853 11.595C12.5835 11.7916 12.5047 11.9797 12.3656 12.1188C12.2266 12.2578 12.0385 12.3367 11.8418 12.3384C11.6452 12.3401 11.4557 12.2645 11.3143 12.1279L9.43925 10.2529C9.29859 10.1123 9.21954 9.92156 9.2195 9.72266V6.72266C9.2195 6.52375 9.29852 6.33298 9.43917 6.19233C9.57982 6.05168 9.77059 5.97266 9.9695 5.97266Z" fill="#353740"/>
</svg>
